<svg id="svg" version="1.1" xmlns="http://www.w3.org/2000/svg" xmlns:xlink="http://www.w3.org/1999/xlink" width="400" height="409.04761904761904" viewBox="0, 0, 400,409.04761904761904"><g id="svgg"><path id="path0" d="M194.200 2.357 C 187.037 4.445,181.041 10.356,178.915 17.422 C 178.235 19.683,178.190 27.424,178.000 175.200 L 177.800 330.600 128.400 281.322 C 74.807 227.861,77.962 230.902,74.323 229.199 C 54.700 220.016,34.964 241.676,45.673 260.643 C 48.354 265.393,185.755 402.506,189.899 404.567 C 196.923 408.061,203.887 408.060,210.901 404.564 C 214.070 402.985,349.845 268.088,353.790 262.600 C 360.052 253.889,359.355 241.814,352.150 234.182 C 344.353 225.923,331.029 224.811,322.295 231.690 C 321.467 232.342,298.787 254.860,271.895 281.729 L 223.000 330.584 222.800 174.792 L 222.600 19.000 221.229 15.800 C 216.493 4.749,205.222 -0.857,194.200 2.357 " stroke="none" fill="#040404" fill-rule="evenodd"></path><path id="path1" d="M0.000 204.400 L 0.000 408.800 200.000 408.800 L 400.000 408.800 400.000 204.400 L 400.000 0.000 200.000 0.000 L 0.000 0.000 0.000 204.400 M207.521 2.146 C 214.861 4.710,220.301 10.522,222.378 18.018 L 223.200 20.984 223.200 175.092 C 223.200 259.851,223.335 329.200,223.501 329.200 C 223.666 329.200,245.671 307.318,272.401 280.574 C 299.130 253.829,321.900 231.346,323.000 230.610 C 343.339 217.013,367.475 240.049,355.218 261.358 C 353.863 263.714,215.834 401.938,212.800 403.978 C 205.615 408.808,194.735 408.685,187.552 403.692 C 183.716 401.025,46.955 263.803,45.251 260.910 C 34.480 242.635,53.104 220.697,73.024 228.194 C 77.541 229.895,78.507 230.810,128.500 280.750 L 177.600 329.799 177.607 175.599 C 177.613 44.684,177.699 20.999,178.176 18.748 C 180.910 5.850,195.118 -2.188,207.521 2.146 " stroke="none" fill="#f4f4f4" fill-rule="evenodd"></path><path id="path2" d="M200.105 1.087 C 200.714 1.179,201.614 1.177,202.105 1.082 C 202.597 0.987,202.100 0.911,201.000 0.914 C 199.900 0.917,199.497 0.995,200.105 1.087 M184.181 7.700 L 182.600 9.400 184.300 7.819 C 185.235 6.949,186.000 6.184,186.000 6.119 C 186.000 5.816,185.652 6.119,184.181 7.700 M222.899 174.900 C 222.820 298.547,222.900 329.600,223.301 329.600 C 223.576 329.600,245.941 307.415,273.001 280.300 L 322.200 231.000 272.999 280.100 C 245.939 307.105,223.664 329.200,223.500 329.200 C 223.336 329.200,223.156 259.675,223.100 174.700 L 222.999 20.200 222.899 174.900 M64.305 226.683 C 64.802 226.779,65.522 226.775,65.905 226.675 C 66.287 226.575,65.880 226.496,65.000 226.501 C 64.120 226.505,63.807 226.587,64.305 226.683 M49.775 232.500 L 48.600 233.800 49.900 232.625 C 51.112 231.530,51.384 231.200,51.075 231.200 C 51.006 231.200,50.421 231.785,49.775 232.500 M128.200 280.800 C 155.259 307.860,177.489 330.000,177.599 330.000 C 177.709 330.000,155.659 307.860,128.600 280.800 C 101.541 253.740,79.311 231.600,79.201 231.600 C 79.091 231.600,101.141 253.740,128.200 280.800 M351.800 233.600 C 352.883 234.700,353.860 235.600,353.970 235.600 C 354.080 235.600,353.283 234.700,352.200 233.600 C 351.117 232.500,350.140 231.600,350.030 231.600 C 349.920 231.600,350.717 232.500,351.800 233.600 M358.528 249.600 C 358.528 251.030,358.601 251.615,358.689 250.900 C 358.778 250.185,358.778 249.015,358.689 248.300 C 358.601 247.585,358.528 248.170,358.528 249.600 M43.600 257.753 C 43.600 258.182,44.790 260.400,45.021 260.400 C 45.131 260.400,44.923 259.815,44.559 259.100 C 43.817 257.640,43.600 257.336,43.600 257.753 M62.400 279.325 C 62.400 279.394,62.985 279.979,63.700 280.625 L 65.000 281.800 63.825 280.500 C 62.730 279.288,62.400 279.016,62.400 279.325 M240.575 376.500 L 239.400 377.800 240.700 376.625 C 241.415 375.979,242.000 375.394,242.000 375.325 C 242.000 375.016,241.670 375.288,240.575 376.500 M234.185 382.900 L 232.200 385.000 234.300 383.015 C 235.455 381.923,236.400 380.978,236.400 380.915 C 236.400 380.617,236.029 380.949,234.185 382.900 M230.575 386.500 L 229.400 387.800 230.700 386.625 C 231.415 385.979,232.000 385.394,232.000 385.325 C 232.000 385.016,231.670 385.288,230.575 386.500 M223.993 393.100 L 219.800 397.400 224.100 393.207 C 226.465 390.901,228.400 388.966,228.400 388.907 C 228.400 388.618,227.887 389.106,223.993 393.100 " stroke="none" fill="#9d9d9d" fill-rule="evenodd"></path><path id="path3" d="M177.737 25.400 C 177.739 27.160,177.809 27.830,177.893 26.889 C 177.978 25.949,177.977 24.509,177.891 23.689 C 177.805 22.870,177.736 23.640,177.737 25.400 M177.754 42.800 C 177.754 45.550,177.818 46.675,177.896 45.300 C 177.974 43.925,177.974 41.675,177.896 40.300 C 177.818 38.925,177.754 40.050,177.754 42.800 M177.754 62.000 C 177.754 64.750,177.818 65.875,177.896 64.500 C 177.974 63.125,177.974 60.875,177.896 59.500 C 177.818 58.125,177.754 59.250,177.754 62.000 M177.754 80.800 C 177.754 83.550,177.818 84.675,177.896 83.300 C 177.974 81.925,177.974 79.675,177.896 78.300 C 177.818 76.925,177.754 78.050,177.754 80.800 M177.754 100.000 C 177.754 102.750,177.818 103.875,177.896 102.500 C 177.974 101.125,177.974 98.875,177.896 97.500 C 177.818 96.125,177.754 97.250,177.754 100.000 M177.753 119.000 C 177.753 121.640,177.818 122.668,177.897 121.284 C 177.975 119.901,177.974 117.741,177.895 116.484 C 177.816 115.228,177.752 116.360,177.753 119.000 M177.754 138.000 C 177.754 140.750,177.818 141.875,177.896 140.500 C 177.974 139.125,177.974 136.875,177.896 135.500 C 177.818 134.125,177.754 135.250,177.754 138.000 M177.754 157.200 C 177.754 159.950,177.818 161.075,177.896 159.700 C 177.974 158.325,177.974 156.075,177.896 154.700 C 177.818 153.325,177.754 154.450,177.754 157.200 M177.754 176.000 C 177.754 178.750,177.818 179.875,177.896 178.500 C 177.974 177.125,177.974 174.875,177.896 173.500 C 177.818 172.125,177.754 173.250,177.754 176.000 M177.754 195.200 C 177.754 197.950,177.818 199.075,177.896 197.700 C 177.974 196.325,177.974 194.075,177.896 192.700 C 177.818 191.325,177.754 192.450,177.754 195.200 M177.753 214.200 C 177.753 216.840,177.818 217.868,177.897 216.484 C 177.975 215.101,177.974 212.941,177.895 211.684 C 177.816 210.428,177.752 211.560,177.753 214.200 M177.754 233.200 C 177.754 235.950,177.818 237.075,177.896 235.700 C 177.974 234.325,177.974 232.075,177.896 230.700 C 177.818 229.325,177.754 230.450,177.754 233.200 M177.753 252.200 C 177.753 254.840,177.818 255.868,177.897 254.484 C 177.975 253.101,177.974 250.941,177.895 249.684 C 177.816 248.428,177.752 249.560,177.753 252.200 M48.000 264.525 C 48.000 264.594,48.585 265.179,49.300 265.825 L 50.600 267.000 49.425 265.700 C 48.330 264.488,48.000 264.216,48.000 264.525 M177.754 271.200 C 177.754 273.950,177.818 275.075,177.896 273.700 C 177.974 272.325,177.974 270.075,177.896 268.700 C 177.818 267.325,177.754 268.450,177.754 271.200 M348.975 268.100 L 347.800 269.400 349.100 268.225 C 349.815 267.579,350.400 266.994,350.400 266.925 C 350.400 266.616,350.070 266.888,348.975 268.100 M53.600 270.125 C 53.600 270.194,54.185 270.779,54.900 271.425 L 56.200 272.600 55.025 271.300 C 53.930 270.088,53.600 269.816,53.600 270.125 M334.788 282.300 L 332.200 285.000 334.900 282.412 C 337.408 280.007,337.783 279.600,337.488 279.600 C 337.427 279.600,336.212 280.815,334.788 282.300 M65.183 281.700 C 66.164 282.745,67.019 283.600,67.083 283.600 C 67.384 283.600,67.066 283.241,65.300 281.583 L 63.400 279.800 65.183 281.700 M72.000 288.600 C 74.523 291.130,76.677 293.200,76.787 293.200 C 76.897 293.200,74.923 291.130,72.400 288.600 C 69.877 286.070,67.723 284.000,67.613 284.000 C 67.503 284.000,69.477 286.070,72.000 288.600 M177.754 290.400 C 177.754 293.150,177.818 294.275,177.896 292.900 C 177.974 291.525,177.974 289.275,177.896 287.900 C 177.818 286.525,177.754 287.650,177.754 290.400 M324.191 292.900 L 321.000 296.200 324.300 293.009 C 327.365 290.046,327.782 289.600,327.491 289.600 C 327.430 289.600,325.945 291.085,324.191 292.900 M82.000 298.600 C 84.523 301.130,86.677 303.200,86.787 303.200 C 86.897 303.200,84.923 301.130,82.400 298.600 C 79.877 296.070,77.723 294.000,77.613 294.000 C 77.503 294.000,79.477 296.070,82.000 298.600 M314.400 302.600 C 312.761 304.250,311.510 305.600,311.620 305.600 C 311.730 305.600,313.161 304.250,314.800 302.600 C 316.439 300.950,317.690 299.600,317.580 299.600 C 317.470 299.600,316.039 300.950,314.400 302.600 M91.800 308.400 C 94.433 311.040,96.677 313.200,96.787 313.200 C 96.897 313.200,94.833 311.040,92.200 308.400 C 89.567 305.760,87.323 303.600,87.213 303.600 C 87.103 303.600,89.167 305.760,91.800 308.400 M177.753 309.400 C 177.753 312.040,177.818 313.068,177.897 311.684 C 177.975 310.301,177.974 308.141,177.895 306.884 C 177.816 305.628,177.752 306.760,177.753 309.400 M305.385 311.700 L 303.400 313.800 305.500 311.815 C 306.655 310.723,307.600 309.778,307.600 309.715 C 307.600 309.417,307.229 309.749,305.385 311.700 M100.800 317.400 C 102.660 319.270,104.272 320.800,104.382 320.800 C 104.492 320.800,103.060 319.270,101.200 317.400 C 99.340 315.530,97.728 314.000,97.618 314.000 C 97.508 314.000,98.940 315.530,100.800 317.400 M295.385 321.700 L 293.400 323.800 295.500 321.815 C 296.655 320.723,297.600 319.778,297.600 319.715 C 297.600 319.417,297.229 319.749,295.385 321.700 M110.600 327.200 C 112.571 329.180,114.273 330.800,114.383 330.800 C 114.493 330.800,112.971 329.180,111.000 327.200 C 109.029 325.220,107.327 323.600,107.217 323.600 C 107.107 323.600,108.629 325.220,110.600 327.200 M177.737 326.600 C 177.739 328.360,177.809 329.030,177.893 328.089 C 177.978 327.149,177.977 325.709,177.891 324.889 C 177.805 324.070,177.736 324.840,177.737 326.600 M285.600 331.400 C 284.628 332.390,283.923 333.200,284.033 333.200 C 284.143 333.200,285.028 332.390,286.000 331.400 C 286.972 330.410,287.677 329.600,287.567 329.600 C 287.457 329.600,286.572 330.410,285.600 331.400 M119.400 336.000 C 122.033 338.640,124.277 340.800,124.387 340.800 C 124.497 340.800,122.433 338.640,119.800 336.000 C 117.167 333.360,114.923 331.200,114.813 331.200 C 114.703 331.200,116.767 333.360,119.400 336.000 M275.381 341.700 L 273.800 343.400 275.500 341.819 C 276.435 340.949,277.200 340.184,277.200 340.119 C 277.200 339.816,276.852 340.119,275.381 341.700 M128.200 344.800 C 130.171 346.780,131.873 348.400,131.983 348.400 C 132.093 348.400,130.571 346.780,128.600 344.800 C 126.629 342.820,124.927 341.200,124.817 341.200 C 124.707 341.200,126.229 342.820,128.200 344.800 M266.175 350.900 L 265.000 352.200 266.300 351.025 C 267.015 350.379,267.600 349.794,267.600 349.725 C 267.600 349.416,267.270 349.688,266.175 350.900 M137.200 353.800 C 138.617 355.230,139.867 356.400,139.977 356.400 C 140.087 356.400,139.017 355.230,137.600 353.800 C 136.183 352.370,134.933 351.200,134.823 351.200 C 134.713 351.200,135.783 352.370,137.200 353.800 M148.400 365.000 C 150.260 366.870,151.872 368.400,151.982 368.400 C 152.092 368.400,150.660 366.870,148.800 365.000 C 146.940 363.130,145.328 361.600,145.218 361.600 C 145.108 361.600,146.540 363.130,148.400 365.000 M154.800 371.325 C 154.800 371.394,155.385 371.979,156.100 372.625 L 157.400 373.800 156.225 372.500 C 155.130 371.288,154.800 371.016,154.800 371.325 M165.400 382.000 C 166.259 382.880,167.052 383.600,167.162 383.600 C 167.272 383.600,166.659 382.880,165.800 382.000 C 164.941 381.120,164.148 380.400,164.038 380.400 C 163.928 380.400,164.541 381.120,165.400 382.000 M175.183 391.700 C 176.841 393.466,177.200 393.784,177.200 393.483 C 177.200 393.419,176.345 392.564,175.300 391.583 L 173.400 389.800 175.183 391.700 M182.800 399.325 C 182.800 399.394,183.385 399.979,184.100 400.625 L 185.400 401.800 184.225 400.500 C 183.130 399.288,182.800 399.016,182.800 399.325 M199.507 407.490 C 200.226 407.579,201.306 407.577,201.907 407.486 C 202.508 407.395,201.920 407.322,200.600 407.324 C 199.280 407.326,198.788 407.401,199.507 407.490 " stroke="none" fill="#747474" fill-rule="evenodd"></path><path id="path4" d="M199.507 1.490 C 200.226 1.579,201.306 1.577,201.907 1.486 C 202.508 1.395,201.920 1.322,200.600 1.324 C 199.280 1.326,198.788 1.401,199.507 1.490 M184.175 8.100 L 183.000 9.400 184.300 8.225 C 185.015 7.579,185.600 6.994,185.600 6.925 C 185.600 6.616,185.270 6.888,184.175 8.100 M177.754 33.200 C 177.754 35.950,177.818 37.075,177.896 35.700 C 177.974 34.325,177.974 32.075,177.896 30.700 C 177.818 29.325,177.754 30.450,177.754 33.200 M177.754 52.400 C 177.754 55.150,177.818 56.275,177.896 54.900 C 177.974 53.525,177.974 51.275,177.896 49.900 C 177.818 48.525,177.754 49.650,177.754 52.400 M177.753 71.400 C 177.753 74.040,177.818 75.068,177.897 73.684 C 177.975 72.301,177.974 70.141,177.895 68.884 C 177.816 67.628,177.752 68.760,177.753 71.400 M177.754 90.400 C 177.754 93.150,177.818 94.275,177.896 92.900 C 177.974 91.525,177.974 89.275,177.896 87.900 C 177.818 86.525,177.754 87.650,177.754 90.400 M177.754 109.600 C 177.754 112.350,177.818 113.475,177.896 112.100 C 177.974 110.725,177.974 108.475,177.896 107.100 C 177.818 105.725,177.754 106.850,177.754 109.600 M177.754 128.400 C 177.754 131.150,177.818 132.275,177.896 130.900 C 177.974 129.525,177.974 127.275,177.896 125.900 C 177.818 124.525,177.754 125.650,177.754 128.400 M177.754 147.600 C 177.754 150.350,177.818 151.475,177.896 150.100 C 177.974 148.725,177.974 146.475,177.896 145.100 C 177.818 143.725,177.754 144.850,177.754 147.600 M177.753 166.600 C 177.753 169.240,177.818 170.268,177.897 168.884 C 177.975 167.501,177.974 165.341,177.895 164.084 C 177.816 162.828,177.752 163.960,177.753 166.600 M177.754 185.600 C 177.754 188.350,177.818 189.475,177.896 188.100 C 177.974 186.725,177.974 184.475,177.896 183.100 C 177.818 181.725,177.754 182.850,177.754 185.600 M177.754 204.800 C 177.754 207.550,177.818 208.675,177.896 207.300 C 177.974 205.925,177.974 203.675,177.896 202.300 C 177.818 200.925,177.754 202.050,177.754 204.800 M177.754 223.600 C 177.754 226.350,177.818 227.475,177.896 226.100 C 177.974 224.725,177.974 222.475,177.896 221.100 C 177.818 219.725,177.754 220.850,177.754 223.600 M63.900 227.082 C 64.395 227.178,65.205 227.178,65.700 227.082 C 66.195 226.987,65.790 226.909,64.800 226.909 C 63.810 226.909,63.405 226.987,63.900 227.082 M335.105 227.083 C 335.602 227.179,336.322 227.175,336.705 227.075 C 337.087 226.975,336.680 226.896,335.800 226.901 C 334.920 226.905,334.607 226.987,335.105 227.083 M105.800 258.800 C 120.539 273.540,132.688 285.600,132.798 285.600 C 132.908 285.600,120.939 273.540,106.200 258.800 C 91.461 244.060,79.312 232.000,79.202 232.000 C 79.092 232.000,91.061 244.060,105.800 258.800 M177.754 242.800 C 177.754 245.550,177.818 246.675,177.896 245.300 C 177.974 243.925,177.974 241.675,177.896 240.300 C 177.818 238.925,177.754 240.050,177.754 242.800 M358.128 249.600 C 358.128 251.030,358.201 251.615,358.289 250.900 C 358.378 250.185,358.378 249.015,358.289 248.300 C 358.201 247.585,358.128 248.170,358.128 249.600 M177.754 261.600 C 177.754 264.350,177.818 265.475,177.896 264.100 C 177.974 262.725,177.974 260.475,177.896 259.100 C 177.818 257.725,177.754 258.850,177.754 261.600 M177.754 280.800 C 177.754 283.550,177.818 284.675,177.896 283.300 C 177.974 281.925,177.974 279.675,177.896 278.300 C 177.818 276.925,177.754 278.050,177.754 280.800 M137.800 290.800 C 140.433 293.440,142.677 295.600,142.787 295.600 C 142.897 295.600,140.833 293.440,138.200 290.800 C 135.567 288.160,133.323 286.000,133.213 286.000 C 133.103 286.000,135.167 288.160,137.800 290.800 M177.754 300.000 C 177.754 302.750,177.818 303.875,177.896 302.500 C 177.974 301.125,177.974 298.875,177.896 297.500 C 177.818 296.125,177.754 297.250,177.754 300.000 M147.400 300.400 C 149.812 302.820,151.876 304.800,151.986 304.800 C 152.096 304.800,150.212 302.820,147.800 300.400 C 145.388 297.980,143.324 296.000,143.214 296.000 C 143.104 296.000,144.988 297.980,147.400 300.400 M155.000 308.000 C 156.083 309.100,157.060 310.000,157.170 310.000 C 157.280 310.000,156.483 309.100,155.400 308.000 C 154.317 306.900,153.340 306.000,153.230 306.000 C 153.120 306.000,153.917 306.900,155.000 308.000 M162.200 315.200 C 164.833 317.840,167.077 320.000,167.187 320.000 C 167.297 320.000,165.233 317.840,162.600 315.200 C 159.967 312.560,157.723 310.400,157.613 310.400 C 157.503 310.400,159.567 312.560,162.200 315.200 M177.754 318.800 C 177.754 321.550,177.818 322.675,177.896 321.300 C 177.974 319.925,177.974 317.675,177.896 316.300 C 177.818 314.925,177.754 316.050,177.754 318.800 M172.200 325.200 C 174.833 327.840,177.077 330.000,177.187 330.000 C 177.297 330.000,175.233 327.840,172.600 325.200 C 169.967 322.560,167.723 320.400,167.613 320.400 C 167.503 320.400,169.567 322.560,172.200 325.200 " stroke="none" fill="#6c6c6c" fill-rule="evenodd"></path></g></svg>