<?xml version="1.0" standalone="no"?>
<!DOCTYPE svg PUBLIC "-//W3C//DTD SVG 20010904//EN"
 "http://www.w3.org/TR/2001/REC-SVG-20010904/DTD/svg10.dtd">
<svg version="1.0" xmlns="http://www.w3.org/2000/svg"
 width="40px" height="40px" viewBox="0 0 512.000000 512.000000"
 preserveAspectRatio="xMidYMid meet">
<metadata>
Created by potrace 1.16, written by Peter Selinger 2001-2019
</metadata>
<g transform="translate(0.000000,512.000000) scale(0.100000,-0.100000)"
fill="#8EC9BB" stroke="none">
<path d="M4035 4788 c-79 -93 -133 -259 -120 -372 8 -74 37 -152 77 -207 31
-43 31 -43 19 -104 -21 -100 -69 -203 -120 -256 -58 -60 -95 -69 -171 -40 -54
21 -80 38 -349 235 -368 270 -623 376 -905 376 -224 0 -489 -87 -668 -220 -54
-40 -68 -56 -73 -84 -14 -70 30 -127 98 -129 26 -1 54 12 113 51 101 66 209
115 315 144 68 18 109 23 219 23 161 0 237 -18 398 -95 126 -60 215 -118 463
-300 205 -151 274 -191 366 -215 243 -63 433 104 518 457 14 57 25 124 25 151
0 41 -5 53 -39 90 -73 80 -92 144 -67 231 9 31 21 56 27 56 5 0 62 -52 127
-116 96 -96 128 -121 177 -140 142 -57 259 -173 359 -355 60 -110 106 -272 84
-294 -3 -4 -48 -2 -99 4 -86 10 -134 20 -299 66 -117 32 -226 -27 -289 -158
-40 -82 -81 -226 -88 -309 -6 -65 -5 -68 25 -97 44 -45 122 -41 159 8 6 9 19
50 28 91 25 114 64 226 85 245 19 17 24 17 112 -8 122 -34 135 -36 257 -46
181 -16 261 12 303 107 18 39 20 60 15 146 -15 291 -251 643 -517 770 -55 27
-96 58 -173 133 -56 55 -138 122 -182 151 -67 44 -86 52 -126 52 -43 0 -51 -4
-84 -42z"/>
<path d="M1479 3872 c-28 -25 -34 -37 -34 -71 0 -99 111 -146 181 -76 18 18
24 35 24 69 0 62 -30 96 -91 103 -41 5 -50 2 -80 -25z"/>
<path d="M1292 3534 c-49 -34 -135 -251 -320 -810 -150 -451 -215 -617 -293
-746 -60 -99 -89 -131 -144 -158 -53 -26 -101 -25 -178 2 -197 69 -357 -17
-357 -193 0 -105 52 -186 168 -262 118 -79 250 -108 402 -88 194 25 335 96
485 246 162 161 261 322 435 705 56 124 121 259 143 300 l42 75 2 -40 c9 -146
38 -278 93 -410 31 -75 34 -88 34 -200 1 -159 -16 -215 -88 -294 -109 -118
-131 -185 -145 -431 -13 -244 -52 -348 -189 -502 -65 -73 -86 -130 -79 -206 6
-68 32 -125 79 -168 135 -127 346 -99 513 69 118 118 158 223 209 544 45 283
86 373 218 480 250 202 497 627 565 970 9 48 17 89 18 90 0 1 29 -5 65 -14 99
-23 292 -14 392 19 l77 26 -24 -32 c-60 -78 -76 -197 -37 -272 24 -46 73 -94
122 -120 54 -29 171 -26 235 5 96 48 306 287 321 367 12 67 -53 132 -121 120
-38 -8 -51 -20 -135 -133 -97 -131 -179 -193 -215 -163 -23 19 -18 37 24 105
47 74 83 158 105 241 24 91 21 137 -10 173 -40 48 -94 44 -188 -13 -155 -94
-275 -130 -418 -124 -90 3 -102 6 -180 46 -100 50 -138 54 -177 14 -25 -25
-29 -37 -35 -122 -14 -180 -55 -325 -141 -505 -99 -204 -253 -413 -386 -520
-168 -136 -229 -267 -283 -605 -32 -198 -49 -267 -82 -333 -68 -132 -220 -220
-284 -162 -27 24 -25 47 6 76 43 40 114 140 149 209 65 131 95 258 95 404 0
108 15 207 37 250 8 17 37 54 63 82 27 28 59 73 73 101 75 147 87 405 26 570
-82 224 -92 280 -90 516 l0 167 -29 33 c-25 29 -34 32 -82 31 -154 -2 -270
-153 -483 -629 -220 -495 -398 -719 -638 -803 -82 -28 -213 -35 -284 -14 -77
23 -183 115 -160 138 4 4 38 -3 75 -17 54 -19 86 -24 167 -24 93 0 105 2 166
32 85 42 147 98 202 181 105 158 195 374 331 792 113 347 188 559 248 698 58
137 62 180 19 223 -34 34 -91 40 -129 13z"/>
<path d="M4073 2950 c-37 -22 -54 -69 -42 -115 31 -113 199 -92 199 25 0 52
-13 76 -50 95 -39 20 -69 19 -107 -5z"/>
</g>
</svg>
