<svg width="96" height="814" viewBox="0 0 96 814" fill="none" xmlns="http://www.w3.org/2000/svg">
<path d="M49.5 0C49.5 264.8 49.5 334 49.5 335.5H34L20 349.5L3 337L4.5 364L18 350.5L46.5 367.5H62L80 360L86.5 352.5C88.8333 350.5 90.8 345.3 80 340.5C69.2 335.7 57.8333 333.167 53.5 332.5L59.5 705V722.5L46.5 727.5L39.5 740.5L37.5 759L34.5 763.5L19 754.5L23 740.5L33 730.5L21.5 716.5L40.5 761.5L79 763.5L83 756V726L90 719.5L93 710.5L84.5 702.5H73.5L70.5 696L64 698.5L65 813" stroke="#F83D3D" stroke-width="4"/>
</svg>
